<?xml version="1.0" encoding="UTF-8"?>
<!DOCTYPE svg PUBLIC "-//W3C//DTD SVG 1.1//EN" "http://www.w3.org/Graphics/SVG/1.1/DTD/svg11.dtd">
<svg version="1.2" width="338.66mm" height="190.5mm" viewBox="0 0 33866 19050" preserveAspectRatio="xMidYMid" fill-rule="evenodd" stroke-width="28.222" stroke-linejoin="round" xmlns="http://www.w3.org/2000/svg" xmlns:ooo="http://xml.openoffice.org/svg/export" xmlns:xlink="http://www.w3.org/1999/xlink" xmlns:presentation="http://sun.com/xmlns/staroffice/presentation" xmlns:smil="http://www.w3.org/2001/SMIL20/" xmlns:anim="urn:oasis:names:tc:opendocument:xmlns:animation:1.0" xml:space="preserve">
 <defs class="ClipPathGroup">
  <clipPath id="presentation_clip_path" clipPathUnits="userSpaceOnUse">
   <rect x="0" y="0" width="33866" height="19050"/>
  </clipPath>
  <clipPath id="presentation_clip_path_shrink" clipPathUnits="userSpaceOnUse">
   <rect x="33" y="19" width="33799" height="19012"/>
  </clipPath>
 </defs>
 <defs class="TextShapeIndex">
  <g ooo:slide="id1" ooo:id-list="id3 id4 id5 id6 id7 id8 id9 id10 id11 id12 id13"/>
 </defs>
 <defs class="EmbeddedBulletChars">
  <g id="bullet-char-template-57356" transform="scale(0.00048828125,-0.00048828125)">
   <path d="M 580,1141 L 1163,571 580,0 -4,571 580,1141 Z"/>
  </g>
  <g id="bullet-char-template-57354" transform="scale(0.00048828125,-0.00048828125)">
   <path d="M 8,1128 L 1137,1128 1137,0 8,0 8,1128 Z"/>
  </g>
  <g id="bullet-char-template-10146" transform="scale(0.00048828125,-0.00048828125)">
   <path d="M 174,0 L 602,739 174,1481 1456,739 174,0 Z M 1358,739 L 309,1346 659,739 1358,739 Z"/>
  </g>
  <g id="bullet-char-template-10132" transform="scale(0.00048828125,-0.00048828125)">
   <path d="M 2015,739 L 1276,0 717,0 1260,543 174,543 174,936 1260,936 717,1481 1274,1481 2015,739 Z"/>
  </g>
  <g id="bullet-char-template-10007" transform="scale(0.00048828125,-0.00048828125)">
   <path d="M 0,-2 C -7,14 -16,27 -25,37 L 356,567 C 262,823 215,952 215,954 215,979 228,992 255,992 264,992 276,990 289,987 310,991 331,999 354,1012 L 381,999 492,748 772,1049 836,1024 860,1049 C 881,1039 901,1025 922,1006 886,937 835,863 770,784 769,783 710,716 594,584 L 774,223 C 774,196 753,168 711,139 L 727,119 C 717,90 699,76 672,76 641,76 570,178 457,381 L 164,-76 C 142,-110 111,-127 72,-127 30,-127 9,-110 8,-76 1,-67 -2,-52 -2,-32 -2,-23 -1,-13 0,-2 Z"/>
  </g>
  <g id="bullet-char-template-10004" transform="scale(0.00048828125,-0.00048828125)">
   <path d="M 285,-33 C 182,-33 111,30 74,156 52,228 41,333 41,471 41,549 55,616 82,672 116,743 169,778 240,778 293,778 328,747 346,684 L 369,508 C 377,444 397,411 428,410 L 1163,1116 C 1174,1127 1196,1133 1229,1133 1271,1133 1292,1118 1292,1087 L 1292,965 C 1292,929 1282,901 1262,881 L 442,47 C 390,-6 338,-33 285,-33 Z"/>
  </g>
  <g id="bullet-char-template-9679" transform="scale(0.00048828125,-0.00048828125)">
   <path d="M 813,0 C 632,0 489,54 383,161 276,268 223,411 223,592 223,773 276,916 383,1023 489,1130 632,1184 813,1184 992,1184 1136,1130 1245,1023 1353,916 1407,772 1407,592 1407,412 1353,268 1245,161 1136,54 992,0 813,0 Z"/>
  </g>
  <g id="bullet-char-template-8226" transform="scale(0.00048828125,-0.00048828125)">
   <path d="M 346,457 C 273,457 209,483 155,535 101,586 74,649 74,723 74,796 101,859 155,911 209,963 273,989 346,989 419,989 480,963 531,910 582,859 608,796 608,723 608,648 583,586 532,535 482,483 420,457 346,457 Z"/>
  </g>
  <g id="bullet-char-template-8211" transform="scale(0.00048828125,-0.00048828125)">
   <path d="M -4,459 L 1135,459 1135,606 -4,606 -4,459 Z"/>
  </g>
  <g id="bullet-char-template-61548" transform="scale(0.00048828125,-0.00048828125)">
   <path d="M 173,740 C 173,903 231,1043 346,1159 462,1274 601,1332 765,1332 928,1332 1067,1274 1183,1159 1299,1043 1357,903 1357,740 1357,577 1299,437 1183,322 1067,206 928,148 765,148 601,148 462,206 346,322 231,437 173,577 173,740 Z"/>
  </g>
 </defs>
 <g>
  <g id="id2" class="Master_Slide">
   <g id="bg-id2" class="Background"/>
   <g id="bo-id2" class="BackgroundObjects"/>
  </g>
 </g>
 <g class="SlideGroup">
  <g>
   <g id="container-id1">
    <g id="id1" class="Slide" clip-path="url(#presentation_clip_path)">
     <g class="Page">
      <g class="com.sun.star.drawing.PolyPolygonShape">
       <g id="id3">
        <rect class="BoundingBox" stroke="none" fill="none" x="-1" y="0" width="33869" height="19053"/>
        <path fill="rgb(107,94,155)" stroke="none" d="M 0,19051 L 0,1 33866,1 33866,19051 0,19051 Z"/>
        <path fill="none" stroke="rgb(52,101,164)" d="M 0,19051 L 0,1 33866,1 33866,19051 0,19051 Z"/>
       </g>
      </g>
      <g class="com.sun.star.drawing.PolyPolygonShape">
       <g id="id4">
        <rect class="BoundingBox" stroke="none" fill="none" x="-1" y="14286" width="33869" height="4766"/>
        <path fill="rgb(0,169,51)" stroke="none" d="M 0,19050 L 0,14287 33866,14287 33866,19050 0,19050 Z"/>
        <path fill="none" stroke="rgb(102,102,102)" d="M 0,19050 L 0,14287 33866,14287 33866,19050 0,19050 Z"/>
       </g>
      </g>
      <g class="com.sun.star.drawing.PolyPolygonShape">
       <g id="id5">
        <rect class="BoundingBox" stroke="none" fill="none" x="11745" y="2223" width="10799" height="14926"/>
        <path fill="rgb(236,155,164)" stroke="none" d="M 17144,2224 L 22542,9685 17144,17147 11746,9685 17144,2224 17144,2224 Z"/>
        <path fill="none" stroke="rgb(236,155,164)" d="M 17144,2224 L 22542,9685 17144,17147 11746,9685 17144,2224 17144,2224 Z"/>
       </g>
      </g>
      <g class="com.sun.star.drawing.PolyPolygonShape">
       <g id="id6">
        <rect class="BoundingBox" stroke="none" fill="none" x="14921" y="5080" width="1592" height="2544"/>
        <path fill="rgb(255,255,255)" stroke="none" d="M 16511,6352 L 16509,6435 16504,6518 16496,6600 16484,6680 16469,6760 16451,6837 16429,6913 16405,6987 16377,7058 16347,7125 16314,7189 16278,7250 16240,7307 16200,7359 16158,7408 16114,7452 16068,7491 16020,7525 15972,7555 15922,7579 15872,7598 15820,7611 15795,7616 15769,7619 15743,7621 15717,7622 15690,7621 15664,7619 15638,7616 15613,7611 15561,7598 15511,7579 15461,7555 15413,7525 15365,7491 15319,7452 15275,7408 15233,7359 15193,7307 15155,7250 15119,7189 15086,7125 15056,7058 15028,6987 15004,6913 14982,6837 14964,6760 14949,6680 14937,6600 14929,6518 14924,6435 14922,6352 14924,6268 14929,6185 14937,6103 14949,6023 14964,5943 14982,5866 15004,5790 15028,5716 15056,5645 15086,5578 15119,5514 15155,5453 15193,5396 15233,5344 15275,5295 15319,5251 15365,5212 15413,5178 15461,5148 15511,5124 15561,5105 15613,5092 15638,5087 15664,5084 15690,5082 15717,5081 15743,5082 15769,5084 15795,5087 15820,5092 15872,5105 15922,5124 15972,5148 16020,5178 16068,5212 16114,5251 16158,5295 16200,5344 16240,5396 16278,5453 16314,5514 16347,5578 16377,5645 16405,5716 16429,5790 16451,5866 16469,5943 16484,6023 16496,6103 16504,6185 16509,6268 16511,6351 16511,6352 Z"/>
        <path fill="none" stroke="rgb(0,0,0)" d="M 16511,6352 L 16509,6435 16504,6518 16496,6600 16484,6680 16469,6760 16451,6837 16429,6913 16405,6987 16377,7058 16347,7125 16314,7189 16278,7250 16240,7307 16200,7359 16158,7408 16114,7452 16068,7491 16020,7525 15972,7555 15922,7579 15872,7598 15820,7611 15795,7616 15769,7619 15743,7621 15717,7622 15690,7621 15664,7619 15638,7616 15613,7611 15561,7598 15511,7579 15461,7555 15413,7525 15365,7491 15319,7452 15275,7408 15233,7359 15193,7307 15155,7250 15119,7189 15086,7125 15056,7058 15028,6987 15004,6913 14982,6837 14964,6760 14949,6680 14937,6600 14929,6518 14924,6435 14922,6352 14924,6268 14929,6185 14937,6103 14949,6023 14964,5943 14982,5866 15004,5790 15028,5716 15056,5645 15086,5578 15119,5514 15155,5453 15193,5396 15233,5344 15275,5295 15319,5251 15365,5212 15413,5178 15461,5148 15511,5124 15561,5105 15613,5092 15638,5087 15664,5084 15690,5082 15717,5081 15743,5082 15769,5084 15795,5087 15820,5092 15872,5105 15922,5124 15972,5148 16020,5178 16068,5212 16114,5251 16158,5295 16200,5344 16240,5396 16278,5453 16314,5514 16347,5578 16377,5645 16405,5716 16429,5790 16451,5866 16469,5943 16484,6023 16496,6103 16504,6185 16509,6268 16511,6351 16511,6352 Z"/>
       </g>
      </g>
      <g class="com.sun.star.drawing.PolyPolygonShape">
       <g id="id7">
        <rect class="BoundingBox" stroke="none" fill="none" x="15237" y="5712" width="957" height="1593"/>
        <path fill="rgb(0,0,0)" stroke="none" d="M 16192,6508 L 16191,6560 16188,6612 16183,6663 16176,6714 16167,6763 16156,6812 16143,6859 16128,6905 16112,6950 16093,6992 16074,7032 16052,7070 16030,7106 16005,7139 15980,7169 15954,7196 15926,7221 15897,7243 15868,7261 15838,7276 15808,7288 15793,7292 15777,7296 15762,7299 15746,7301 15731,7303 15715,7303 15699,7303 15684,7301 15668,7299 15653,7296 15637,7292 15622,7288 15592,7276 15562,7261 15533,7243 15504,7221 15477,7196 15450,7169 15425,7139 15400,7106 15378,7070 15356,7032 15337,6992 15318,6950 15302,6905 15287,6859 15274,6812 15263,6763 15254,6714 15247,6663 15242,6612 15239,6560 15238,6508 15239,6456 15242,6404 15247,6353 15254,6302 15263,6253 15274,6204 15287,6157 15302,6111 15318,6066 15337,6024 15356,5984 15378,5946 15400,5910 15425,5877 15450,5847 15477,5820 15504,5795 15533,5773 15562,5755 15592,5740 15622,5728 15637,5724 15653,5720 15668,5717 15684,5715 15699,5713 15715,5713 15731,5713 15746,5715 15762,5717 15777,5720 15793,5724 15808,5728 15838,5740 15868,5755 15897,5773 15926,5795 15954,5820 15980,5847 16005,5877 16030,5910 16052,5946 16074,5984 16093,6024 16112,6066 16128,6110 16143,6157 16156,6204 16167,6253 16176,6302 16183,6353 16188,6404 16191,6456 16192,6508 16192,6508 Z"/>
        <path fill="none" stroke="rgb(0,0,0)" d="M 16192,6508 L 16191,6560 16188,6612 16183,6663 16176,6714 16167,6763 16156,6812 16143,6859 16128,6905 16112,6950 16093,6992 16074,7032 16052,7070 16030,7106 16005,7139 15980,7169 15954,7196 15926,7221 15897,7243 15868,7261 15838,7276 15808,7288 15793,7292 15777,7296 15762,7299 15746,7301 15731,7303 15715,7303 15699,7303 15684,7301 15668,7299 15653,7296 15637,7292 15622,7288 15592,7276 15562,7261 15533,7243 15504,7221 15477,7196 15450,7169 15425,7139 15400,7106 15378,7070 15356,7032 15337,6992 15318,6950 15302,6905 15287,6859 15274,6812 15263,6763 15254,6714 15247,6663 15242,6612 15239,6560 15238,6508 15239,6456 15242,6404 15247,6353 15254,6302 15263,6253 15274,6204 15287,6157 15302,6111 15318,6066 15337,6024 15356,5984 15378,5946 15400,5910 15425,5877 15450,5847 15477,5820 15504,5795 15533,5773 15562,5755 15592,5740 15622,5728 15637,5724 15653,5720 15668,5717 15684,5715 15699,5713 15715,5713 15731,5713 15746,5715 15762,5717 15777,5720 15793,5724 15808,5728 15838,5740 15868,5755 15897,5773 15926,5795 15954,5820 15980,5847 16005,5877 16030,5910 16052,5946 16074,5984 16093,6024 16112,6066 16128,6110 16143,6157 16156,6204 16167,6253 16176,6302 16183,6353 16188,6404 16191,6456 16192,6508 16192,6508 Z"/>
       </g>
      </g>
      <g class="com.sun.star.drawing.PolyPolygonShape">
       <g id="id8">
        <rect class="BoundingBox" stroke="none" fill="none" x="17778" y="5080" width="1592" height="2544"/>
        <path fill="rgb(255,255,255)" stroke="none" d="M 19368,6352 L 19366,6435 19361,6518 19353,6600 19341,6680 19326,6760 19308,6837 19286,6913 19262,6987 19234,7058 19204,7125 19171,7189 19135,7250 19097,7307 19057,7359 19015,7408 18971,7452 18925,7491 18877,7525 18829,7555 18779,7579 18729,7598 18677,7611 18652,7616 18626,7619 18600,7621 18574,7622 18547,7621 18521,7619 18495,7616 18470,7611 18418,7598 18368,7579 18318,7555 18270,7525 18222,7491 18176,7452 18132,7408 18090,7359 18050,7307 18012,7250 17976,7189 17943,7125 17913,7058 17885,6987 17861,6913 17839,6837 17821,6760 17806,6680 17794,6600 17786,6518 17781,6435 17779,6352 17781,6268 17786,6185 17794,6103 17806,6023 17821,5943 17839,5866 17861,5790 17885,5716 17913,5645 17943,5578 17976,5514 18012,5453 18050,5396 18090,5344 18132,5295 18176,5251 18222,5212 18270,5178 18318,5148 18368,5124 18418,5105 18470,5092 18495,5087 18521,5084 18547,5082 18574,5081 18600,5082 18626,5084 18652,5087 18677,5092 18729,5105 18779,5124 18829,5148 18877,5178 18925,5212 18971,5251 19015,5295 19057,5344 19097,5396 19135,5453 19171,5514 19204,5578 19234,5645 19262,5716 19286,5790 19308,5866 19326,5943 19341,6023 19353,6103 19361,6185 19366,6268 19368,6351 19368,6352 Z"/>
        <path fill="none" stroke="rgb(0,0,0)" d="M 19368,6352 L 19366,6435 19361,6518 19353,6600 19341,6680 19326,6760 19308,6837 19286,6913 19262,6987 19234,7058 19204,7125 19171,7189 19135,7250 19097,7307 19057,7359 19015,7408 18971,7452 18925,7491 18877,7525 18829,7555 18779,7579 18729,7598 18677,7611 18652,7616 18626,7619 18600,7621 18574,7622 18547,7621 18521,7619 18495,7616 18470,7611 18418,7598 18368,7579 18318,7555 18270,7525 18222,7491 18176,7452 18132,7408 18090,7359 18050,7307 18012,7250 17976,7189 17943,7125 17913,7058 17885,6987 17861,6913 17839,6837 17821,6760 17806,6680 17794,6600 17786,6518 17781,6435 17779,6352 17781,6268 17786,6185 17794,6103 17806,6023 17821,5943 17839,5866 17861,5790 17885,5716 17913,5645 17943,5578 17976,5514 18012,5453 18050,5396 18090,5344 18132,5295 18176,5251 18222,5212 18270,5178 18318,5148 18368,5124 18418,5105 18470,5092 18495,5087 18521,5084 18547,5082 18574,5081 18600,5082 18626,5084 18652,5087 18677,5092 18729,5105 18779,5124 18829,5148 18877,5178 18925,5212 18971,5251 19015,5295 19057,5344 19097,5396 19135,5453 19171,5514 19204,5578 19234,5645 19262,5716 19286,5790 19308,5866 19326,5943 19341,6023 19353,6103 19361,6185 19366,6268 19368,6351 19368,6352 Z"/>
       </g>
      </g>
      <g class="com.sun.star.drawing.PolyPolygonShape">
       <g id="id9">
        <rect class="BoundingBox" stroke="none" fill="none" x="18095" y="5714" width="957" height="1593"/>
        <path fill="rgb(0,0,0)" stroke="none" d="M 19050,6510 L 19049,6562 19046,6614 19041,6665 19034,6716 19025,6765 19014,6814 19001,6861 18986,6908 18970,6952 18951,6994 18932,7034 18910,7072 18888,7108 18863,7141 18838,7171 18812,7198 18784,7223 18755,7245 18726,7263 18696,7278 18666,7290 18651,7294 18635,7298 18620,7301 18604,7303 18589,7305 18573,7305 18557,7305 18542,7303 18526,7301 18511,7298 18495,7294 18480,7290 18450,7278 18420,7263 18391,7245 18362,7223 18335,7198 18308,7171 18283,7141 18258,7108 18236,7072 18214,7034 18195,6994 18176,6952 18160,6908 18145,6861 18132,6814 18121,6765 18112,6716 18105,6665 18100,6614 18097,6562 18096,6510 18097,6458 18100,6406 18105,6355 18112,6304 18121,6255 18132,6206 18145,6159 18160,6112 18176,6068 18195,6026 18214,5986 18236,5948 18258,5912 18283,5879 18308,5849 18335,5822 18362,5797 18391,5775 18420,5757 18450,5742 18480,5730 18495,5726 18511,5722 18526,5719 18542,5717 18557,5715 18573,5715 18589,5715 18604,5717 18620,5719 18635,5722 18651,5726 18666,5730 18696,5742 18726,5757 18755,5775 18784,5797 18812,5822 18838,5849 18863,5879 18888,5912 18910,5948 18932,5986 18951,6026 18970,6068 18986,6112 19001,6159 19014,6206 19025,6255 19034,6304 19041,6355 19046,6406 19049,6458 19050,6510 19050,6510 Z"/>
        <path fill="none" stroke="rgb(0,0,0)" d="M 19050,6510 L 19049,6562 19046,6614 19041,6665 19034,6716 19025,6765 19014,6814 19001,6861 18986,6908 18970,6952 18951,6994 18932,7034 18910,7072 18888,7108 18863,7141 18838,7171 18812,7198 18784,7223 18755,7245 18726,7263 18696,7278 18666,7290 18651,7294 18635,7298 18620,7301 18604,7303 18589,7305 18573,7305 18557,7305 18542,7303 18526,7301 18511,7298 18495,7294 18480,7290 18450,7278 18420,7263 18391,7245 18362,7223 18335,7198 18308,7171 18283,7141 18258,7108 18236,7072 18214,7034 18195,6994 18176,6952 18160,6908 18145,6861 18132,6814 18121,6765 18112,6716 18105,6665 18100,6614 18097,6562 18096,6510 18097,6458 18100,6406 18105,6355 18112,6304 18121,6255 18132,6206 18145,6159 18160,6112 18176,6068 18195,6026 18214,5986 18236,5948 18258,5912 18283,5879 18308,5849 18335,5822 18362,5797 18391,5775 18420,5757 18450,5742 18480,5730 18495,5726 18511,5722 18526,5719 18542,5717 18557,5715 18573,5715 18589,5715 18604,5717 18620,5719 18635,5722 18651,5726 18666,5730 18696,5742 18726,5757 18755,5775 18784,5797 18812,5822 18838,5849 18863,5879 18888,5912 18910,5948 18932,5986 18951,6026 18970,6068 18986,6112 19001,6159 19014,6206 19025,6255 19034,6304 19041,6355 19046,6406 19049,6458 19050,6510 19050,6510 Z"/>
       </g>
      </g>
      <g class="com.sun.star.drawing.PolyPolygonShape">
       <g id="id10">
        <rect class="BoundingBox" stroke="none" fill="none" x="14286" y="8572" width="5402" height="4131"/>
        <path fill="rgb(236,155,164)" stroke="none" d="M 16986,8573 L 19686,10637 16986,12701 14287,10637 16986,8573 16986,8573 Z"/>
        <path fill="none" stroke="rgb(0,0,0)" d="M 16986,8573 L 19686,10637 16986,12701 14287,10637 16986,8573 16986,8573 Z"/>
       </g>
      </g>
      <g class="com.sun.star.drawing.PolyPolygonShape">
       <g id="id11">
        <rect class="BoundingBox" stroke="none" fill="none" x="14920" y="9841" width="1909" height="1909"/>
        <path fill="rgb(0,0,0)" stroke="none" d="M 15874,9842 L 16827,10795 15874,11748 14921,10795 15874,9842 15874,9842 Z"/>
        <path fill="none" stroke="rgb(0,0,0)" d="M 15874,9842 L 16827,10795 15874,11748 14921,10795 15874,9842 15874,9842 Z"/>
       </g>
      </g>
      <g class="com.sun.star.drawing.PolyPolygonShape">
       <g id="id12">
        <rect class="BoundingBox" stroke="none" fill="none" x="17143" y="9841" width="1909" height="1909"/>
        <path fill="rgb(0,0,0)" stroke="none" d="M 18097,9842 L 19050,10795 18097,11748 17144,10795 18097,9842 18097,9842 Z"/>
        <path fill="none" stroke="rgb(0,0,0)" d="M 18097,9842 L 19050,10795 18097,11748 17144,10795 18097,9842 18097,9842 Z"/>
       </g>
      </g>
      <g class="com.sun.star.drawing.PolyPolygonShape">
       <g id="id13">
        <rect class="BoundingBox" stroke="none" fill="none" x="-3493" y="-3493" width="11116" height="10799"/>
        <path fill="rgb(52,101,164)" stroke="none" d="M 7621,1906 L 7609,2260 7573,2612 7514,2960 7432,3303 7326,3640 7199,3970 7049,4292 6877,4605 6684,4906 6472,5193 6241,5466 5994,5723 5729,5964 5448,6188 5153,6394 4843,6581 4521,6748 4189,6894 3850,7018 3503,7120 3149,7200 2791,7258 2429,7292 2065,7304 1700,7292 1338,7258 980,7200 626,7120 279,7018 -60,6894 -392,6748 -714,6581 -1024,6394 -1319,6188 -1600,5964 -1865,5723 -2112,5466 -2343,5193 -2555,4906 -2748,4605 -2920,4292 -3070,3970 -3197,3640 -3303,3303 -3385,2960 -3444,2612 -3480,2260 -3492,1906 -3480,1552 -3444,1200 -3385,852 -3303,509 -3197,172 -3070,-158 -2920,-480 -2748,-793 -2555,-1094 -2343,-1381 -2112,-1654 -1865,-1911 -1600,-2152 -1319,-2376 -1024,-2582 -714,-2769 -392,-2936 -60,-3082 279,-3206 626,-3308 980,-3388 1338,-3446 1700,-3480 2064,-3492 2429,-3480 2791,-3446 3149,-3388 3503,-3308 3850,-3206 4189,-3082 4521,-2936 4843,-2769 5153,-2582 5448,-2376 5729,-2152 5994,-1911 6241,-1654 6472,-1381 6684,-1094 6877,-793 7049,-480 7199,-158 7326,172 7432,509 7514,852 7573,1200 7609,1552 7621,1906 7621,1906 Z"/>
        <path fill="none" stroke="rgb(52,101,164)" d="M 7621,1906 L 7609,2260 7573,2612 7514,2960 7432,3303 7326,3640 7199,3970 7049,4292 6877,4605 6684,4906 6472,5193 6241,5466 5994,5723 5729,5964 5448,6188 5153,6394 4843,6581 4521,6748 4189,6894 3850,7018 3503,7120 3149,7200 2791,7258 2429,7292 2065,7304 1700,7292 1338,7258 980,7200 626,7120 279,7018 -60,6894 -392,6748 -714,6581 -1024,6394 -1319,6188 -1600,5964 -1865,5723 -2112,5466 -2343,5193 -2555,4906 -2748,4605 -2920,4292 -3070,3970 -3197,3640 -3303,3303 -3385,2960 -3444,2612 -3480,2260 -3492,1906 -3480,1552 -3444,1200 -3385,852 -3303,509 -3197,172 -3070,-158 -2920,-480 -2748,-793 -2555,-1094 -2343,-1381 -2112,-1654 -1865,-1911 -1600,-2152 -1319,-2376 -1024,-2582 -714,-2769 -392,-2936 -60,-3082 279,-3206 626,-3308 980,-3388 1338,-3446 1700,-3480 2064,-3492 2429,-3480 2791,-3446 3149,-3388 3503,-3308 3850,-3206 4189,-3082 4521,-2936 4843,-2769 5153,-2582 5448,-2376 5729,-2152 5994,-1911 6241,-1654 6472,-1381 6684,-1094 6877,-793 7049,-480 7199,-158 7326,172 7432,509 7514,852 7573,1200 7609,1552 7621,1906 7621,1906 Z"/>
       </g>
      </g>
     </g>
    </g>
   </g>
  </g>
 </g>
</svg>